<svg width="24" height="24" viewBox="0 0 24 24" fill="none" xmlns="http://www.w3.org/2000/svg">
<path fill-rule="evenodd" clip-rule="evenodd" d="M11.0304 0.0193053C10.927 0.0314314 10.6491 0.0671125 10.4128 0.0985546C5.65687 0.731154 1.68583 4.17858 0.42167 8.77236C0.0900157 9.97741 0.00264527 10.6422 6.7645e-05 11.9795C-0.00245627 13.3112 0.0646156 13.8613 0.375219 15.0563C0.892085 17.0447 1.89371 18.8315 3.32289 20.3145C5.20315 22.2655 7.4916 23.4498 10.2517 23.9001C11.0707 24.0337 12.9112 24.0332 13.7423 23.8991C16.331 23.4814 18.5172 22.4039 20.3363 20.649C22.2631 18.7902 23.4582 16.4766 23.8999 13.7502C24.0333 12.9268 24.0334 11.0864 23.9 10.2625C23.458 7.532 22.2668 5.22604 20.3363 3.36366C18.5422 1.63294 16.4095 0.565197 13.9034 0.142981C13.2856 0.0389432 11.5125 -0.0374087 11.0304 0.0193053ZM12.9368 1.76022C17.0748 2.15008 20.5661 4.94269 21.8223 8.86749C22.4859 10.9411 22.4749 13.2139 21.7912 15.2717C20.9332 17.8538 18.9761 20.0843 16.5347 21.2626C13.2012 22.8715 9.35495 22.6121 6.29139 20.5719C3.87224 18.9608 2.27181 16.436 1.81417 13.5087C1.70785 12.8287 1.69405 11.3224 1.78802 10.665C2.11157 8.40267 3.1322 6.34053 4.71486 4.75146C6.87007 2.58753 9.92417 1.47638 12.9368 1.76022ZM15.3264 7.55851C15.2526 7.58737 14.4735 8.32793 13.595 9.20423L11.9979 10.7975L10.3999 9.20606C8.67435 7.48752 8.67634 7.48902 8.20034 7.57825C7.93602 7.62778 7.61479 7.94874 7.56522 8.21284C7.47592 8.68844 7.47441 8.68646 9.19428 10.4105L10.7871 12.007L9.71249 13.0932C7.68911 15.1385 7.55319 15.2879 7.51088 15.5133C7.39462 16.1325 7.96411 16.6683 8.57361 16.5131C8.77477 16.4619 8.99075 16.2629 10.3959 14.8343L11.9899 13.2136L13.6179 14.8323C15.0301 16.2364 15.2761 16.4589 15.4741 16.5111C15.7995 16.5968 16.0735 16.5106 16.3111 16.2478C16.5203 16.0165 16.5925 15.764 16.5384 15.4537C16.5076 15.2774 16.2992 15.0515 14.8542 13.6284L13.2053 12.0043L14.7995 10.4359C15.6764 9.57328 16.4209 8.81217 16.4539 8.74451C16.5577 8.53225 16.5309 8.11261 16.4002 7.90126C16.1939 7.56774 15.7036 7.41122 15.3264 7.55851Z" fill="black"/>
</svg>
