<svg width="100" height="100" viewBox="0 0 100 100" fill="none" xmlns="http://www.w3.org/2000/svg">
<path fill-rule="evenodd" clip-rule="evenodd" d="M8.38512 0.280833C4.42299 1.14045 1.08391 4.21845 0.254546 7.77547C-0.0967177 9.28244 -0.0790344 29.4863 0.274194 30.1797C0.559309 30.7394 1.47469 31.2483 2.19643 31.2483C2.82866 31.2483 3.85079 30.7489 4.08024 30.3279C4.18481 30.136 4.31951 25.1018 4.37954 19.1409L4.4887 8.30292L5.09779 7.19334C5.78787 5.93633 6.84559 5.0191 8.29802 4.41803L9.29155 4.00677H50.0067H90.7218L91.7153 4.41803C93.1677 5.0191 94.2254 5.93633 94.9155 7.19334L95.5246 8.30292L95.5816 42.0261L95.6386 75.7494L87.8315 75.8095L80.0245 75.8697L78.3872 76.5768C76.2684 77.4917 74.8518 78.7588 73.829 80.654L73.0385 82.1186L72.9713 89.1024L72.904 96.0862L41.0978 96.0348L9.29155 95.9835L8.05111 95.4386C6.64583 94.8214 5.62042 93.8752 4.94846 92.576C4.49175 91.6934 4.48804 91.5389 4.37954 69.816C4.31951 57.7868 4.18481 47.7877 4.08024 47.5957C3.85407 47.1806 2.8315 46.6754 2.2176 46.6754C1.47949 46.6754 0.651218 47.1149 0.324405 47.6801C0.0606849 48.1363 0.0133114 51.4894 0.0133114 69.699C0.0133114 84.627 0.0868823 91.4955 0.254546 92.2148C1.10771 95.8743 4.61074 99.0078 8.70189 99.7709C10.339 100.076 75.3795 100.076 76.0547 99.7711C76.7326 99.4645 99.3082 79.2992 99.6867 78.6622C99.9555 78.2097 100 73.2127 100 43.4726C100 18.9214 99.9297 8.50855 99.7588 7.77547C98.9056 4.11593 95.4026 0.982473 91.3114 0.21932C89.5453 -0.110117 9.91461 -0.0511424 8.38512 0.280833ZM71.4084 17.8787C70.7519 18.0435 69.7695 18.4358 69.2253 18.7506C68.681 19.0656 56.6695 29.6733 42.5334 42.3238L16.8312 65.3246L13.5545 76.2602C11.7524 82.2748 10.277 87.3455 10.2759 87.5284C10.2724 88.1319 10.7859 88.8806 11.3972 89.1633C12.2988 89.5804 59.5523 89.5804 60.454 89.1633C61.0858 88.871 61.5772 88.1301 61.5772 87.4699C61.5772 86.9207 61.0124 86.006 60.5483 85.8037C60.3337 85.7102 53.2505 85.5897 44.8078 85.536L29.4576 85.4384L33.3464 84.5065L37.2354 83.5746L62.949 60.5847C77.0915 47.9404 88.9504 37.1965 89.3025 36.7097C90.8545 34.5628 90.9914 31.6207 89.652 29.2019C88.9844 27.9969 88.2769 27.2861 83.8037 23.3273C79.3309 19.3692 78.5467 18.758 77.3281 18.2792C75.591 17.5967 73.1817 17.4336 71.4084 17.8787ZM75.7866 21.945C76.2174 22.1291 78.6328 24.144 81.154 26.4223C85.2253 30.101 85.77 30.6685 86.0204 31.4914C86.3531 32.5844 86.1879 33.806 85.5921 34.6567C85.3631 34.9838 83.4513 36.7887 81.3438 38.6677L77.5119 42.0838L70.3646 35.6905L63.2171 29.2972L67.1454 25.7609C69.4645 23.6732 71.4315 22.0703 71.947 21.8479C72.9879 21.3986 74.6047 21.4396 75.7866 21.945ZM55.3559 61.9062L36.2532 78.9936L29.104 72.5985L21.9545 66.2033L41.0554 49.1167L60.1564 32.03L67.3076 38.4246L74.4586 44.819L55.3559 61.9062ZM1.12888 38.1604C-0.763659 39.0987 0.0281565 41.7934 2.19643 41.7934C3.30261 41.7934 4.37954 40.8394 4.37954 39.8595C4.37954 38.3934 2.56821 37.4466 1.12888 38.1604ZM53.8382 52.7224C45.8149 59.8917 45.7594 59.9466 45.7594 60.7488C45.7594 62.1437 47.4061 63.0878 48.7658 62.4725C49.028 62.3538 52.7056 59.1688 56.9383 55.3946C65.1579 48.0652 65.2361 47.9763 64.6279 46.6629C64.477 46.3373 64.0777 45.9435 63.7404 45.7874C62.3009 45.1215 62.5024 44.9805 53.8382 52.7224ZM39.6999 65.4023C37.838 66.8903 39.8903 69.493 42.1145 68.4643C43.4388 67.8517 43.6747 66.3679 42.6009 65.4072C41.7313 64.6294 40.669 64.6276 39.6999 65.4023ZM31.7986 80.7981C31.7591 80.8333 29.8781 81.3039 27.6186 81.8439L23.51 82.8255L20.5879 80.2117L17.6658 77.5979L18.7726 73.9487C19.3815 71.9416 19.8797 70.2353 19.8797 70.1568C19.8797 70.0783 22.5776 72.4259 25.8749 75.374C29.1723 78.322 31.8379 80.7628 31.7986 80.7981ZM84.9354 86.4159L77.4048 93.1544L77.3462 88.3537C77.3096 85.3251 77.3759 83.2602 77.5266 82.7599C77.8318 81.7462 79.3191 80.3328 80.4611 79.9713C81.1237 79.7614 82.6768 79.6927 86.9002 79.6862L92.4659 79.6776L84.9354 86.4159ZM17.4736 83.0909C18.0015 83.5721 18.3903 83.9982 18.3379 84.038C18.2853 84.0777 17.6455 84.2417 16.9159 84.4022L15.5892 84.6942L15.9206 83.4553C16.1029 82.7738 16.3109 82.2163 16.383 82.2163C16.4552 82.2163 16.946 82.6099 17.4736 83.0909Z" fill="black"/>
</svg>
