<svg width="100" height="100" viewBox="0 0 100 100" fill="none" xmlns="http://www.w3.org/2000/svg">
<path fill-rule="evenodd" clip-rule="evenodd" d="M35.4547 0.109046C32.6491 0.583064 30.8582 1.32887 29.0753 2.76558C26.7684 4.62453 25.7201 7.05831 25.7088 10.5822L25.704 12.0965L18.4211 12.1004C10.2264 12.1047 8.42409 12.2491 6.24475 13.0754C4.29052 13.8163 1.96817 15.6846 1.07279 17.2358C-0.936337 20.7173 -0.0751459 24.7441 3.25117 27.4221C4.40054 28.3475 7.11749 29.6816 7.85277 29.6816C8.04682 29.6816 8.13735 37.9181 8.18454 59.8207L8.24906 89.9597L8.90271 91.5228C10.5095 95.3661 13.5472 97.9486 18.1822 99.4121L19.8054 99.9246L49.1779 99.9801C75.4013 100.03 78.7377 100.002 80.2968 99.7224C86.2715 98.6509 90.7327 94.5738 91.6669 89.3313C91.8125 88.5126 91.9047 76.8585 91.9076 58.8589L91.9124 29.7119L92.8153 29.4728C96.2612 28.5599 99.2555 25.5796 99.8779 22.4428C100.533 19.1421 98.5003 15.4603 95.0228 13.6494C92.3988 12.2829 91.9844 12.2321 82.7393 12.1428L74.4088 12.0625L74.2574 9.77659C74.0896 7.24393 73.5958 5.77929 72.4002 4.26696C70.7895 2.23021 67.8785 0.628786 64.9738 0.181732C63.7375 -0.008579 36.5465 -0.075598 35.4547 0.109046ZM65.3137 5.09307C67.4714 6.05381 68.3328 7.40201 68.5014 10.082L68.628 12.0965H50.0333H31.4384L31.5205 10.0937C31.6156 7.77657 32.1756 6.57062 33.5527 5.71813C35.2491 4.6681 35.0603 4.67924 50.3817 4.72593C63.0894 4.76482 64.663 4.8035 65.3137 5.09307ZM91.3105 17.3042C92.5343 17.8386 93.2303 18.4461 93.7294 19.4154C94.6508 21.2052 93.8801 23.3945 91.9387 24.502L90.908 25.0899L50.5416 25.1474C22.3604 25.1876 9.90595 25.1419 9.28311 24.9958C6.88516 24.433 5.34793 22.1845 5.9556 20.1284C6.41256 18.5825 7.94642 17.3638 9.93436 16.9672C10.3316 16.8878 28.5871 16.8366 50.5021 16.8533L90.3475 16.8835L91.3105 17.3042ZM86.0791 58.6972C86.1234 78.2933 86.0627 87.8541 85.8877 88.7873C85.3809 91.4892 83.6629 93.4851 80.8903 94.593L79.283 95.2352L50.6523 95.288C19.5916 95.3452 20.4114 95.3704 18.3046 94.2911C16.3332 93.2811 14.6994 91.3112 14.1775 89.3151C13.9842 88.5747 13.9069 79.9551 13.9069 59.0778V29.8757L49.9604 29.9253L86.0139 29.9747L86.0791 58.6972ZM31.0522 36.8994C30.6629 37.2153 30.2753 37.7538 30.191 38.0961C30.1067 38.4385 30.0376 48.6898 30.0376 60.8771C30.0376 84.5022 30.0037 83.7951 31.1784 84.6437C31.9052 85.1687 33.1974 85.2723 34.2006 84.8858C35.9208 84.2232 35.8158 85.7988 35.8158 60.6606C35.8158 36.1278 35.8835 37.3761 34.5124 36.6469C34.1787 36.4695 33.4249 36.3249 32.8333 36.3249C31.9666 36.3249 31.6238 36.4355 31.0522 36.8994ZM48.2977 36.7655C47.9462 37.0068 47.5398 37.3962 47.3948 37.6309C47.2087 37.9326 47.1315 44.6841 47.1315 60.6575C47.1315 85.799 47.0265 84.2232 48.7467 84.8858C49.7499 85.2723 51.0421 85.1687 51.7689 84.6437C52.9436 83.7951 52.9096 84.5022 52.9096 60.8771C52.9096 48.6898 52.8406 38.4385 52.7563 38.0961C52.672 37.7538 52.2844 37.2153 51.8951 36.8994C50.9723 36.1504 49.2858 36.0875 48.2977 36.7655ZM65.0438 36.9892L64.2253 37.6536L64.2262 60.5827C64.227 82.9649 64.2383 83.5266 64.6962 84.1363C65.2179 84.8307 66.669 85.3057 67.6553 85.1048C68.6186 84.9086 69.4899 84.223 69.7531 83.4541C70.094 82.4578 70.0952 39.0432 69.7543 38.0471C69.3948 36.9967 68.3015 36.3249 66.9514 36.3249C66.0338 36.3249 65.7334 36.4296 65.0438 36.9892Z" fill="black"/>
</svg>
