<?xml version="1.0" standalone="no"?>
<!DOCTYPE svg PUBLIC "-//W3C//DTD SVG 20010904//EN"
 "http://www.w3.org/TR/2001/REC-SVG-20010904/DTD/svg10.dtd">
<svg version="1.0" xmlns="http://www.w3.org/2000/svg"
 width="320.000000pt" height="256.000000pt" viewBox="0 0 320.000000 256.000000"
 preserveAspectRatio="xMidYMid meet">

<g transform="translate(0.000000,256.000000) scale(0.100000,-0.100000)"
fill="#000000" stroke="none">
<path d="M1510 2547 c-49 -17 -83 -83 -77 -149 3 -31 0 -48 -7 -48 -6 0 -137
23 -290 50 -324 58 -353 60 -389 26 -65 -60 -32 -164 57 -179 182 -31 849
-144 981 -167 516 -88 599 -101 619 -96 66 16 102 86 73 143 -19 36 -45 49
-127 62 -209 35 -545 93 -548 96 -1 1 5 18 13 38 8 20 15 59 15 87 0 40 -5 55
-27 80 -24 25 -40 31 -123 45 -52 8 -104 17 -115 19 -11 3 -36 -1 -55 -7z"/>
<path d="M740 2174 c0 -5 9 -41 20 -79 29 -101 30 -100 -46 -125 -159 -53
-358 -197 -441 -320 -45 -67 -63 -106 -84 -181 -19 -69 -37 -239 -26 -239 4 0
39 33 79 74 147 149 339 243 615 301 34 7 33 9 73 -143 l11 -42 23 27 c56 69
368 485 364 488 -2 2 -441 187 -575 242 -7 3 -13 1 -13 -3z"/>
<path d="M1292 1755 c-90 -117 -110 -149 -103 -164 9 -16 21 -108 76 -586 14
-116 31 -266 40 -335 21 -176 20 -183 -16 -219 -32 -33 -66 -39 -113 -21 -50
18 -54 39 -101 430 -70 587 -60 527 -83 508 -26 -23 -50 -28 -77 -18 -28 11
-37 27 -60 113 -14 47 -20 57 -38 57 -43 0 -46 -9 -31 -105 14 -94 36 -256
104 -745 59 -429 58 -422 78 -450 38 -50 28 -50 652 -50 562 0 586 1 617 20
43 26 51 44 63 149 6 50 40 324 76 608 114 906 109 859 96 888 -6 13 -29 33
-51 45 -39 19 -57 20 -528 20 l-488 0 -113 -145z m354 -100 c65 -27 64 -22 63
-617 -1 -293 -4 -544 -8 -558 -8 -29 -64 -70 -97 -70 -12 0 -38 15 -57 33
l-34 32 -7 547 c-7 607 -9 588 57 628 38 24 38 24 83 5z m548 -37 c28 -31 29
-32 22 -122 -3 -50 -10 -125 -15 -166 -6 -41 -19 -156 -31 -255 -73 -637 -69
-618 -137 -650 -41 -20 -73 -12 -109 26 -33 35 -35 64 -10 265 32 257 36 291
51 419 38 321 55 446 64 463 36 67 112 77 165 20z"/>
</g>
</svg>
