<?xml version="1.0" standalone="no"?>
<!DOCTYPE svg PUBLIC "-//W3C//DTD SVG 20010904//EN"
 "http://www.w3.org/TR/2001/REC-SVG-20010904/DTD/svg10.dtd">
<svg version="1.0" xmlns="http://www.w3.org/2000/svg"
 width="512.000000pt" height="512.000000pt" viewBox="0 0 512.000000 512.000000"
 preserveAspectRatio="xMidYMid meet">

<g transform="translate(0.000000,512.000000) scale(0.100000,-0.100000)"
fill="#000000" stroke="none">
<path d="M1443 4466 c-362 -68 -674 -353 -773 -707 -38 -137 -41 -260 -37
-1289 4 -1058 2 -1017 55 -1170 105 -303 373 -552 675 -629 236 -61 807 -70
1937 -31 297 10 355 21 515 100 251 124 444 355 527 630 21 72 22 92 26 548
l3 472 -30 30 c-25 25 -37 30 -78 30 -40 0 -54 -5 -74 -26 l-24 -26 -5 -461
c-6 -449 -6 -464 -29 -532 -99 -298 -342 -506 -638 -546 -51 -6 -414 -9 -1043
-7 l-965 4 -75 22 c-131 41 -225 97 -326 197 -103 102 -159 188 -200 310 -25
75 -28 97 -36 335 -5 140 -7 622 -5 1070 5 791 6 817 26 895 74 278 273 485
538 557 73 20 107 21 518 25 286 3 450 8 468 15 48 19 72 92 46 140 -6 11 -27
27 -47 36 -32 15 -89 17 -457 19 -314 1 -438 -2 -492 -11z"/>
<path d="M3970 4378 c-23 -7 -69 -46 -132 -110 -54 -54 -98 -101 -98 -106 0
-4 95 -102 210 -217 l211 -210 104 106 c82 84 106 115 115 150 35 129 -61 299
-207 370 -55 26 -149 34 -203 17z"/>
<path d="M2718 3142 l-907 -907 -35 -180 c-42 -208 -44 -247 -17 -274 41 -41
119 -39 347 5 l131 26 907 907 906 906 -213 213 -212 212 -907 -908z m277
-272 l-755 -755 -62 63 -63 62 755 755 755 755 62 -62 63 -63 -755 -755z"/>
</g>
</svg>
