<svg width="399" height="273" viewBox="0 0 399 273" fill="none" xmlns="http://www.w3.org/2000/svg">
<path fill-rule="evenodd" clip-rule="evenodd" d="M5.13641 1.13001C-0.312196 3.08291 0.00340161 -3.31223 0.00340161 105.121C0.00340161 191.03 0.158722 203.637 1.24266 205.521C3.82527 210.012 -4.35878 209.689 111.95 209.895L217.7 210.082L264.791 240.464C290.692 257.174 313.148 271.3 314.695 271.855C318.633 273.269 322.895 271.931 324.894 268.652C326.199 266.512 326.339 263.577 326.34 238.195L326.341 210.107L359.182 209.907C395.21 209.688 394.538 209.766 396.979 205.521C398.063 203.637 398.218 191.03 398.218 105.121C398.218 -3.72736 398.564 3.05224 392.904 1.1007C388.592 -0.385958 9.28462 -0.35733 5.13641 1.13001ZM380.869 105.075V195.734H347.835H314.801L312.103 197.722L309.405 199.71L308.992 225.309L308.579 250.908L292.468 240.525C283.608 234.815 264.461 222.477 249.92 213.109L223.483 196.074L120.418 195.897L17.353 195.718V105.068V14.4172H199.111H380.869V105.075Z" fill="black"/>
</svg>
