<svg width="398" height="367" viewBox="0 0 398 367" fill="none" xmlns="http://www.w3.org/2000/svg">
<path fill-rule="evenodd" clip-rule="evenodd" d="M94.2192 0.713997C92.5692 0.941997 87.7462 1.981 83.5002 3.022C42.3932 13.107 10.9522 48.279 2.30719 93.849C-2.49781 119.18 0.284184 150.588 9.88918 179.455C28.9222 236.652 76.4912 290.185 151.219 338.507C163.63 346.532 197.669 367 198.604 367C200.068 367 237.498 344.18 252.804 333.955C326.07 285.013 369.957 233.93 388.508 176C392.527 163.451 395.538 147.495 396.801 132.057C402.818 58.484 354.731 0 288.219 0C258.548 0 227.512 12.864 203.014 35.318L198.809 39.171L191.809 33.147C172.943 16.909 149.362 5.215 127.959 1.483C120.188 0.127002 101.539 -0.297003 94.2192 0.713997ZM125.719 41.696C134.155 43.657 149.158 50.718 157.571 56.686C161.227 59.28 171.982 69.037 181.47 78.369L198.721 95.336L216.53 77.769C235.63 58.929 245.644 51.403 258.943 45.894C278.416 37.827 298.42 37.706 315.596 45.55C339.45 56.444 355.341 82.13 357.369 113.071C358.967 137.451 351.623 168.689 338.593 192.942C315.946 235.095 272.645 275.833 208.969 314.893L198.719 321.18L188.469 314.893C102.013 261.859 55.4132 208.771 42.5432 148.648C39.6052 134.922 39.3262 106.88 42.0302 97C53.6492 54.543 86.7852 32.646 125.719 41.696Z" fill="black"/>
</svg>
